<svg xmlns="http://www.w3.org/2000/svg" xmlns:xlink="http://www.w3.org/1999/xlink" width="500" zoomAndPan="magnify" viewBox="0 0 375 374.999991" height="500" preserveAspectRatio="xMidYMid meet" version="1.0"><defs><g/></defs><g fill="#0d2329" fill-opacity="1"><g transform="translate(49.319972, 273.08396)"><g><path d="M 321.828125 -176.9375 C 321.484375 -176.050781 321.140625 -175.171875 320.796875 -174.296875 C 317.378906 -165.398438 313.691406 -156.648438 309.734375 -148.046875 C 289.296875 -105.566406 267.34375 -64.476562 243.875 -24.78125 C 236.25 -11.976562 228.453125 0.601562 220.484375 12.96875 C 212.523438 25.34375 204.507812 37.664062 196.4375 49.9375 C 194.53125 52.820312 192.597656 55.707031 190.640625 58.59375 C 190.546875 58.832031 190.453125 59 190.359375 59.09375 C 189.910156 59.976562 189.394531 60.710938 188.8125 61.296875 C 188.226562 61.890625 187.445312 62.1875 186.46875 62.1875 C 186.03125 62.1875 185.566406 62.070312 185.078125 61.84375 C 184.585938 61.625 184.195312 61.34375 183.90625 61 C 183.65625 60.707031 183.476562 60.234375 183.375 59.578125 C 183.28125 58.921875 183.332031 58.394531 183.53125 58 C 184.851562 55.164062 186.320312 52.476562 187.9375 49.9375 C 191.550781 44.019531 195.191406 38.101562 198.859375 32.1875 C 205.753906 21.1875 212.523438 10.164062 219.171875 -0.875 C 233.929688 -25.519531 248.03125 -50.671875 261.46875 -76.328125 C 274.914062 -101.992188 288.046875 -127.925781 300.859375 -154.125 C 305.992188 -164.25 310.222656 -175.078125 313.546875 -186.609375 C 314.222656 -188.617188 314.742188 -190.695312 315.109375 -192.84375 C 315.484375 -195 315.671875 -197.222656 315.671875 -199.515625 C 315.328125 -204.453125 313.222656 -206.601562 309.359375 -205.96875 C 305.941406 -205.289062 302.71875 -204.21875 299.6875 -202.75 C 292.5 -199.28125 285.410156 -195.441406 278.421875 -191.234375 C 240.878906 -168.453125 206.6875 -140.171875 175.84375 -106.390625 C 175.394531 -105.859375 174.90625 -105.320312 174.375 -104.78125 C 163.71875 -93.195312 153.144531 -81.515625 142.65625 -69.734375 C 132.164062 -57.953125 121.984375 -45.828125 112.109375 -33.359375 C 110.054688 -30.773438 107.90625 -28.359375 105.65625 -26.109375 C 103.257812 -23.609375 100.398438 -22.628906 97.078125 -23.171875 C 95.660156 -23.367188 94.5 -24.066406 93.59375 -25.265625 C 92.695312 -26.460938 92.34375 -27.867188 92.53125 -29.484375 C 93.21875 -33.878906 94.195312 -38.128906 95.46875 -42.234375 C 99.425781 -55.234375 103.628906 -68.066406 108.078125 -80.734375 C 108.710938 -82.691406 109.300781 -84.570312 109.84375 -86.375 C 111.019531 -91.113281 112.679688 -95.488281 114.828125 -99.5 C 114.828125 -99.601562 114.78125 -99.65625 114.6875 -99.65625 C 114.144531 -99.945312 113.601562 -100.175781 113.0625 -100.34375 C 112.53125 -100.519531 111.992188 -100.335938 111.453125 -99.796875 C 109.492188 -97.648438 107.613281 -95.398438 105.8125 -93.046875 C 90.945312 -72.910156 76.226562 -52.597656 61.65625 -32.109375 C 47.09375 -11.628906 32.867188 9.191406 18.984375 30.359375 C 17.816406 32.410156 16.507812 34.082031 15.0625 35.375 C 13.625 36.675781 11.707031 37.101562 9.3125 36.65625 C 8.238281 36.363281 7.40625 35.703125 6.8125 34.671875 C 6.226562 33.648438 6.109375 32.648438 6.453125 31.671875 C 7.722656 28.785156 9.113281 26.050781 10.625 23.46875 C 14.925781 16.03125 19.179688 8.597656 23.390625 1.171875 C 31.847656 -13.535156 40.234375 -28.320312 48.546875 -43.1875 C 61.453125 -65.96875 72.960938 -89.945312 83.078125 -115.125 C 87.035156 -124.800781 90.257812 -134.96875 92.75 -145.625 C 94.125 -151.289062 94.710938 -157.207031 94.515625 -163.375 C 93.878906 -173.25 90.601562 -180.3125 84.6875 -184.5625 C 78.769531 -188.8125 70.992188 -190.828125 61.359375 -190.609375 C 51.734375 -190.390625 41.054688 -188.421875 29.328125 -184.703125 C 17.597656 -180.992188 5.578125 -176.082031 -6.734375 -169.96875 C -19.054688 -163.851562 -30.9375 -157.101562 -42.375 -149.71875 C -53.820312 -142.34375 -64.003906 -134.863281 -72.921875 -127.28125 C -81.847656 -119.707031 -88.800781 -112.597656 -93.78125 -105.953125 C -99.007812 -98.617188 -103.457031 -90.554688 -107.125 -81.765625 C -108.988281 -77.554688 -110.066406 -72.984375 -110.359375 -68.046875 C -110.453125 -67.066406 -110.9375 -66.332031 -111.8125 -65.84375 C -112.695312 -65.351562 -113.675781 -65.207031 -114.75 -65.40625 C -116.46875 -65.945312 -117.546875 -67.289062 -117.984375 -69.4375 C -118.273438 -72.269531 -118.054688 -74.863281 -117.328125 -77.21875 C -115.710938 -83.125 -113.5625 -88.71875 -110.875 -94 C -105.9375 -103.238281 -98.429688 -112.671875 -88.359375 -122.296875 C -78.285156 -131.929688 -66.550781 -141.160156 -53.15625 -149.984375 C -39.757812 -158.804688 -25.78125 -166.675781 -11.21875 -173.59375 C 3.34375 -180.507812 17.585938 -185.882812 31.515625 -189.71875 C 45.453125 -193.5625 58.003906 -195.285156 69.171875 -194.890625 C 80.347656 -194.503906 89.160156 -191.4375 95.609375 -185.6875 C 102.066406 -179.945312 105.195312 -170.894531 105 -158.53125 C 104.65625 -150.5625 103.410156 -142.984375 101.265625 -135.796875 C 98.140625 -125.242188 94.535156 -115.039062 90.453125 -105.1875 C 86.367188 -95.332031 82.03125 -85.691406 77.4375 -76.265625 C 76.019531 -73.328125 75.710938 -71.894531 76.515625 -71.96875 C 77.316406 -72.039062 78.523438 -73.15625 80.140625 -75.3125 C 85.960938 -83.03125 91.78125 -90.65625 97.59375 -98.1875 C 101.550781 -103.21875 105.585938 -108.15625 109.703125 -113 C 110.234375 -113.675781 110.769531 -114.332031 111.3125 -114.96875 C 113.65625 -117.851562 116.488281 -119.785156 119.8125 -120.765625 C 122.300781 -121.304688 124.398438 -120.742188 126.109375 -119.078125 C 127.828125 -117.421875 128.414062 -114.929688 127.875 -111.609375 C 127.78125 -111.265625 127.6875 -110.921875 127.59375 -110.578125 C 126.707031 -106.273438 125.675781 -102.09375 124.5 -98.03125 C 121.375 -88.113281 118.148438 -78.265625 114.828125 -68.484375 C 113.210938 -63.453125 111.597656 -58.34375 109.984375 -53.15625 C 109.640625 -52.425781 109.148438 -51.082031 108.515625 -49.125 C 107.878906 -47.414062 107.269531 -45.726562 106.6875 -44.0625 C 106.101562 -42.40625 105.640625 -41.132812 105.296875 -40.25 C 105.734375 -40.59375 109.71875 -45.066406 117.25 -53.671875 C 127.46875 -65.398438 139.566406 -79.132812 153.546875 -94.875 C 167.523438 -110.625 178.5 -122.648438 186.46875 -130.953125 C 201.1875 -145.765625 216.695312 -159.242188 233 -171.390625 C 249.300781 -183.546875 266.203125 -194.535156 283.703125 -204.359375 C 288.003906 -206.609375 292.425781 -208.640625 296.96875 -210.453125 C 297.945312 -210.785156 298.898438 -211.175781 299.828125 -211.625 C 304.128906 -213.332031 308.703125 -213.96875 313.546875 -213.53125 C 322.828125 -212.644531 327.078125 -206.773438 326.296875 -195.921875 C 325.765625 -189.179688 324.273438 -182.851562 321.828125 -176.9375 Z M 114.3125 -100.09375 C 114.5625 -99.894531 114.734375 -99.75 114.828125 -99.65625 C 114.828125 -99.65625 114.828125 -99.601562 114.828125 -99.5 C 114.921875 -99.5 114.96875 -99.550781 114.96875 -99.65625 C 114.78125 -99.75 114.5625 -99.894531 114.3125 -100.09375 Z M 114.3125 -100.09375 "/></g></g></g><path stroke-linecap="butt" transform="matrix(0.75, 0, 0, 0.75, 8.855131, 112.583971)" fill="none" stroke-linejoin="miter" d="M 483.036941 -21.903629 C 482.583816 -20.731754 482.125482 -19.559879 481.667149 -18.382796 C 477.104649 -6.52342 472.187982 5.143247 466.906731 16.617206 C 439.661938 73.252627 410.401519 128.03388 379.115059 180.955759 C 368.948391 198.033885 358.552557 214.815136 347.927557 231.304721 C 337.302556 247.794305 326.615055 264.216181 315.859846 280.575557 C 313.31818 284.424516 310.745263 288.268266 308.141096 292.112016 C 308.010887 292.440141 307.875471 292.669308 307.745262 292.799516 C 307.161929 293.971391 306.474429 294.950558 305.693179 295.731808 C 304.911929 296.513058 303.870262 296.903683 302.568179 296.903683 C 301.979637 296.903683 301.359845 296.75785 300.708804 296.466183 C 300.057762 296.169308 299.536929 295.794308 299.146304 295.341183 C 298.818179 294.950558 298.589012 294.315141 298.458804 293.434933 C 298.328595 292.554725 298.396304 291.851599 298.65672 291.330766 C 300.417137 287.549516 302.370262 283.966182 304.521304 280.575557 C 309.344221 272.69014 314.198388 264.804723 319.089013 256.919306 C 328.276514 242.252638 337.302556 227.55472 346.16714 212.825553 C 365.849433 179.976592 384.656726 146.44534 402.578602 112.226588 C 420.500478 78.013044 438.000479 43.434917 455.078605 8.502623 C 461.922356 -4.99217 467.557773 -19.424463 471.990065 -34.80988 C 472.901523 -37.481755 473.604648 -40.252589 474.094232 -43.117173 C 474.583815 -45.986964 474.823398 -48.950506 474.823398 -52.013006 C 474.370273 -58.59634 471.56819 -61.466132 466.417148 -60.617174 C 461.854648 -59.705715 457.552564 -58.273424 453.510897 -56.31509 C 443.932771 -51.69009 434.479646 -46.570298 425.161937 -40.966131 C 375.104642 -10.596337 329.516097 27.10679 288.391095 72.143252 C 287.802553 72.862002 287.151511 73.580752 286.432761 74.294294 C 272.224427 89.742211 258.130676 105.320337 244.151508 121.028672 C 230.172341 136.731798 216.599423 152.898465 203.432756 169.518258 C 200.69838 172.971383 197.828589 176.20055 194.828588 179.195342 C 191.63588 182.518259 187.82338 183.825551 183.391088 183.106801 C 181.500463 182.846384 179.953587 181.919301 178.750462 180.320342 C 177.542129 178.721384 177.068171 176.851592 177.328587 174.70055 C 178.245254 168.830758 179.547337 163.164091 181.240046 157.690132 C 186.521296 140.35159 192.125463 123.242213 198.057755 106.362004 C 198.901505 103.752629 199.687964 101.24742 200.401505 98.835962 C 201.969214 92.513045 204.182756 86.679711 207.052548 81.335961 C 207.052548 81.205752 206.984839 81.138044 206.854631 81.138044 C 206.141089 80.747419 205.422339 80.440127 204.703589 80.210961 C 203.990047 79.981794 203.271297 80.226586 202.552547 80.945336 C 199.94838 83.809919 197.437964 86.809919 195.026505 89.940128 C 175.214004 116.789088 155.594211 143.872423 136.172335 171.179717 C 116.750458 198.48701 97.781707 226.252637 79.276497 254.476597 C 77.708789 257.210972 75.963997 259.445347 74.042122 261.169306 C 72.120247 262.898473 69.562955 263.466181 66.370247 262.882848 C 64.932747 262.492223 63.82858 261.612014 63.04733 260.242222 C 62.260871 258.872431 62.099413 257.539097 62.557746 256.231805 C 64.250455 252.388055 66.10983 248.737013 68.130663 245.283888 C 73.865039 235.377637 79.536914 225.471387 85.141081 215.565136 C 96.417124 195.945343 107.594208 176.2318 118.672333 156.419299 C 135.880668 126.044297 151.229627 94.075545 164.719211 60.513043 C 170.000462 47.606792 174.302545 34.049499 177.625462 19.841165 C 179.448379 12.278664 180.229629 4.393247 179.969212 -3.815087 C 179.125462 -16.981754 174.75567 -26.398421 166.870253 -32.070297 C 158.984836 -37.742172 148.620252 -40.429672 135.78171 -40.138006 C 122.943167 -39.841131 108.698374 -37.221339 93.057748 -32.268213 C 77.417122 -27.315088 61.380663 -20.763004 44.958787 -12.617171 C 28.536911 -4.471337 12.698368 4.523456 -2.556841 14.367206 C -17.806842 24.205749 -31.37976 34.179708 -43.270386 44.283875 C -55.16622 54.382834 -64.437054 63.86721 -71.088096 72.731793 C -78.062055 82.507836 -83.989138 93.263045 -88.879764 104.992212 C -91.353722 110.596379 -92.791222 116.69013 -93.181847 123.273463 C -93.312056 124.580755 -93.963097 125.554714 -95.134972 126.205755 C -96.312056 126.862005 -97.614139 127.054714 -99.046431 126.794297 C -101.327681 126.075547 -102.759973 124.28388 -103.348515 121.419297 C -103.73914 117.638046 -103.447473 114.184921 -102.468306 111.054713 C -100.317264 103.169295 -97.452681 95.705753 -93.864139 88.669294 C -87.280805 76.346377 -77.280804 63.768251 -63.85372 50.929709 C -50.426636 38.091166 -34.78601 25.789082 -16.926634 14.023456 C 0.932742 2.25783 19.573369 -8.231754 38.995245 -17.455712 C 58.417121 -26.679671 77.417122 -33.846339 95.99004 -38.960922 C 114.568166 -44.080714 131.302543 -46.377589 146.193169 -45.856756 C 161.083795 -45.335923 172.833795 -41.242172 181.437963 -33.585922 C 190.04213 -25.929671 194.208797 -13.856754 193.94838 2.63283 C 193.495255 13.257831 191.833797 23.361999 188.964005 32.940124 C 184.792129 47.01825 179.984837 60.627626 174.542129 73.757835 C 169.104628 86.893253 163.31817 99.74742 157.193169 112.325546 C 155.302544 116.237005 154.896294 118.143255 155.969211 118.044296 C 157.047336 117.945338 158.656711 116.466171 160.807753 113.596379 C 168.562962 103.299504 176.318171 93.132836 184.078588 83.096377 C 189.35463 76.382835 194.734838 69.799502 200.208797 63.346376 C 200.922339 62.434918 201.641089 61.554709 202.359839 60.705751 C 205.484839 56.862001 209.266089 54.289084 213.698381 52.981792 C 217.021298 52.26825 219.823382 53.01825 222.104632 55.231792 C 224.385882 57.445334 225.17234 60.773459 224.45359 65.205751 C 224.323382 65.658876 224.193174 66.11721 224.062965 66.570335 C 222.89109 72.309918 221.521298 77.882835 219.95359 83.289086 C 215.786923 96.518253 211.484839 109.653671 207.052548 122.69013 C 204.901506 129.403672 202.750464 136.210964 200.599422 143.122423 C 200.141089 144.096381 199.490047 145.893257 198.641089 148.497423 C 197.797339 150.778674 196.97963 153.028674 196.19838 155.242216 C 195.41713 157.460966 194.797338 159.153674 194.344213 160.325549 C 194.927547 159.872424 200.240047 153.908882 210.276506 142.434923 C 223.901507 126.794297 240.031716 108.481796 258.672343 87.492211 C 277.312969 66.507835 291.943178 50.471375 302.568179 39.39325 C 322.182763 19.643248 342.859848 1.674497 364.599433 -14.523421 C 386.333809 -30.721338 408.870269 -45.367173 432.198396 -58.466132 C 437.937979 -61.466132 443.833813 -64.169257 449.896313 -66.580716 C 451.198397 -67.039049 452.46923 -67.559882 453.708814 -68.148424 C 459.443189 -70.429674 465.53694 -71.273424 471.990065 -70.690091 C 484.375482 -69.513008 490.042149 -61.695299 489.000483 -47.226548 C 488.286941 -38.231756 486.297358 -29.789047 483.036941 -21.903629 Z M 206.365047 80.554711 C 206.693173 80.815127 206.922339 81.007836 207.052548 81.138044 C 207.052548 81.138044 207.052548 81.205752 207.052548 81.335961 C 207.182756 81.335961 207.245256 81.268252 207.245256 81.138044 C 206.984839 81.007836 206.693173 80.815127 206.365047 80.554711 Z M 206.365047 80.554711 " stroke="#0d2329" stroke-width="13.765432" stroke-opacity="1" stroke-miterlimit="4"/></svg>