<svg xmlns="http://www.w3.org/2000/svg" xmlns:xlink="http://www.w3.org/1999/xlink" width="500" zoomAndPan="magnify" viewBox="0 0 375 374.999991" height="500" preserveAspectRatio="xMidYMid meet" version="1.0"><defs><filter x="0%" y="0%" width="100%" height="100%" id="5981907ee0"><feColorMatrix values="0 0 0 0 1 0 0 0 0 1 0 0 0 0 1 0 0 0 1 0" color-interpolation-filters="sRGB"/></filter><g/><mask id="4c976538e1"><g filter="url(#5981907ee0)"><rect x="-37.5" width="450" fill="#000000" y="-37.499999" height="449.999989" fill-opacity="0.298"/></g></mask><clipPath id="a806ceb482"><path d="M 0 58 L 375 58 L 375 336 L 0 336 Z M 0 58 " clip-rule="nonzero"/></clipPath><clipPath id="d5edefd0e8"><rect x="0" width="375" y="0" height="375"/></clipPath></defs><g mask="url(#4c976538e1)"><g transform="matrix(1, 0, 0, 1, 0, 0)"><g clip-path="url(#d5edefd0e8)"><g clip-path="url(#a806ceb482)"><g fill="#cb962c" fill-opacity="1"><g transform="translate(49.319972, 273.08396)"><g><path d="M 321.828125 -176.9375 C 321.484375 -176.050781 321.140625 -175.171875 320.796875 -174.296875 C 317.378906 -165.398438 313.691406 -156.648438 309.734375 -148.046875 C 289.296875 -105.566406 267.34375 -64.476562 243.875 -24.78125 C 236.25 -11.976562 228.453125 0.601562 220.484375 12.96875 C 212.523438 25.34375 204.507812 37.664062 196.4375 49.9375 C 194.53125 52.820312 192.597656 55.707031 190.640625 58.59375 C 190.546875 58.832031 190.453125 59 190.359375 59.09375 C 189.910156 59.976562 189.394531 60.710938 188.8125 61.296875 C 188.226562 61.890625 187.445312 62.1875 186.46875 62.1875 C 186.03125 62.1875 185.566406 62.070312 185.078125 61.84375 C 184.585938 61.625 184.195312 61.34375 183.90625 61 C 183.65625 60.707031 183.476562 60.234375 183.375 59.578125 C 183.28125 58.921875 183.332031 58.394531 183.53125 58 C 184.851562 55.164062 186.320312 52.476562 187.9375 49.9375 C 191.550781 44.019531 195.191406 38.101562 198.859375 32.1875 C 205.753906 21.1875 212.523438 10.164062 219.171875 -0.875 C 233.929688 -25.519531 248.03125 -50.671875 261.46875 -76.328125 C 274.914062 -101.992188 288.046875 -127.925781 300.859375 -154.125 C 305.992188 -164.25 310.222656 -175.078125 313.546875 -186.609375 C 314.222656 -188.617188 314.742188 -190.695312 315.109375 -192.84375 C 315.484375 -195 315.671875 -197.222656 315.671875 -199.515625 C 315.328125 -204.453125 313.222656 -206.601562 309.359375 -205.96875 C 305.941406 -205.289062 302.71875 -204.21875 299.6875 -202.75 C 292.5 -199.28125 285.410156 -195.441406 278.421875 -191.234375 C 240.878906 -168.453125 206.6875 -140.171875 175.84375 -106.390625 C 175.394531 -105.859375 174.90625 -105.320312 174.375 -104.78125 C 163.71875 -93.195312 153.144531 -81.515625 142.65625 -69.734375 C 132.164062 -57.953125 121.984375 -45.828125 112.109375 -33.359375 C 110.054688 -30.773438 107.90625 -28.359375 105.65625 -26.109375 C 103.257812 -23.609375 100.398438 -22.628906 97.078125 -23.171875 C 95.660156 -23.367188 94.5 -24.066406 93.59375 -25.265625 C 92.695312 -26.460938 92.34375 -27.867188 92.53125 -29.484375 C 93.21875 -33.878906 94.195312 -38.128906 95.46875 -42.234375 C 99.425781 -55.234375 103.628906 -68.066406 108.078125 -80.734375 C 108.710938 -82.691406 109.300781 -84.570312 109.84375 -86.375 C 111.019531 -91.113281 112.679688 -95.488281 114.828125 -99.5 C 114.828125 -99.601562 114.78125 -99.65625 114.6875 -99.65625 C 114.144531 -99.945312 113.601562 -100.175781 113.0625 -100.34375 C 112.53125 -100.519531 111.992188 -100.335938 111.453125 -99.796875 C 109.492188 -97.648438 107.613281 -95.398438 105.8125 -93.046875 C 90.945312 -72.910156 76.226562 -52.597656 61.65625 -32.109375 C 47.09375 -11.628906 32.867188 9.191406 18.984375 30.359375 C 17.816406 32.410156 16.507812 34.082031 15.0625 35.375 C 13.625 36.675781 11.707031 37.101562 9.3125 36.65625 C 8.238281 36.363281 7.40625 35.703125 6.8125 34.671875 C 6.226562 33.648438 6.109375 32.648438 6.453125 31.671875 C 7.722656 28.785156 9.113281 26.050781 10.625 23.46875 C 14.925781 16.03125 19.179688 8.597656 23.390625 1.171875 C 31.847656 -13.535156 40.234375 -28.320312 48.546875 -43.1875 C 61.453125 -65.96875 72.960938 -89.945312 83.078125 -115.125 C 87.035156 -124.800781 90.257812 -134.96875 92.75 -145.625 C 94.125 -151.289062 94.710938 -157.207031 94.515625 -163.375 C 93.878906 -173.25 90.601562 -180.3125 84.6875 -184.5625 C 78.769531 -188.8125 70.992188 -190.828125 61.359375 -190.609375 C 51.734375 -190.390625 41.054688 -188.421875 29.328125 -184.703125 C 17.597656 -180.992188 5.578125 -176.082031 -6.734375 -169.96875 C -19.054688 -163.851562 -30.9375 -157.101562 -42.375 -149.71875 C -53.820312 -142.34375 -64.003906 -134.863281 -72.921875 -127.28125 C -81.847656 -119.707031 -88.800781 -112.597656 -93.78125 -105.953125 C -99.007812 -98.617188 -103.457031 -90.554688 -107.125 -81.765625 C -108.988281 -77.554688 -110.066406 -72.984375 -110.359375 -68.046875 C -110.453125 -67.066406 -110.9375 -66.332031 -111.8125 -65.84375 C -112.695312 -65.351562 -113.675781 -65.207031 -114.75 -65.40625 C -116.46875 -65.945312 -117.546875 -67.289062 -117.984375 -69.4375 C -118.273438 -72.269531 -118.054688 -74.863281 -117.328125 -77.21875 C -115.710938 -83.125 -113.5625 -88.71875 -110.875 -94 C -105.9375 -103.238281 -98.429688 -112.671875 -88.359375 -122.296875 C -78.285156 -131.929688 -66.550781 -141.160156 -53.15625 -149.984375 C -39.757812 -158.804688 -25.78125 -166.675781 -11.21875 -173.59375 C 3.34375 -180.507812 17.585938 -185.882812 31.515625 -189.71875 C 45.453125 -193.5625 58.003906 -195.285156 69.171875 -194.890625 C 80.347656 -194.503906 89.160156 -191.4375 95.609375 -185.6875 C 102.066406 -179.945312 105.195312 -170.894531 105 -158.53125 C 104.65625 -150.5625 103.410156 -142.984375 101.265625 -135.796875 C 98.140625 -125.242188 94.535156 -115.039062 90.453125 -105.1875 C 86.367188 -95.332031 82.03125 -85.691406 77.4375 -76.265625 C 76.019531 -73.328125 75.710938 -71.894531 76.515625 -71.96875 C 77.316406 -72.039062 78.523438 -73.15625 80.140625 -75.3125 C 85.960938 -83.03125 91.78125 -90.65625 97.59375 -98.1875 C 101.550781 -103.21875 105.585938 -108.15625 109.703125 -113 C 110.234375 -113.675781 110.769531 -114.332031 111.3125 -114.96875 C 113.65625 -117.851562 116.488281 -119.785156 119.8125 -120.765625 C 122.300781 -121.304688 124.398438 -120.742188 126.109375 -119.078125 C 127.828125 -117.421875 128.414062 -114.929688 127.875 -111.609375 C 127.78125 -111.265625 127.6875 -110.921875 127.59375 -110.578125 C 126.707031 -106.273438 125.675781 -102.09375 124.5 -98.03125 C 121.375 -88.113281 118.148438 -78.265625 114.828125 -68.484375 C 113.210938 -63.453125 111.597656 -58.34375 109.984375 -53.15625 C 109.640625 -52.425781 109.148438 -51.082031 108.515625 -49.125 C 107.878906 -47.414062 107.269531 -45.726562 106.6875 -44.0625 C 106.101562 -42.40625 105.640625 -41.132812 105.296875 -40.25 C 105.734375 -40.59375 109.71875 -45.066406 117.25 -53.671875 C 127.46875 -65.398438 139.566406 -79.132812 153.546875 -94.875 C 167.523438 -110.625 178.5 -122.648438 186.46875 -130.953125 C 201.1875 -145.765625 216.695312 -159.242188 233 -171.390625 C 249.300781 -183.546875 266.203125 -194.535156 283.703125 -204.359375 C 288.003906 -206.609375 292.425781 -208.640625 296.96875 -210.453125 C 297.945312 -210.785156 298.898438 -211.175781 299.828125 -211.625 C 304.128906 -213.332031 308.703125 -213.96875 313.546875 -213.53125 C 322.828125 -212.644531 327.078125 -206.773438 326.296875 -195.921875 C 325.765625 -189.179688 324.273438 -182.851562 321.828125 -176.9375 Z M 114.3125 -100.09375 C 114.5625 -99.894531 114.734375 -99.75 114.828125 -99.65625 C 114.828125 -99.65625 114.828125 -99.601562 114.828125 -99.5 C 114.921875 -99.5 114.96875 -99.550781 114.96875 -99.65625 C 114.78125 -99.75 114.5625 -99.894531 114.3125 -100.09375 Z M 114.3125 -100.09375 "/></g></g></g></g></g></g></g></svg>